<svg xmlns="http://www.w3.org/2000/svg" width="32" height="32" viewBox="0 0 32 32">
  <!-- Define gradients -->
  <defs>
    <linearGradient id="bgGradient" x1="0%" y1="0%" x2="100%" y2="100%">
      <stop offset="0%" stop-color="#EC4899" /> <!-- Pink -->
      <stop offset="50%" stop-color="#A855F7" /> <!-- Purple -->
      <stop offset="100%" stop-color="#6366F1" /> <!-- Indigo -->
    </linearGradient>
  </defs>
  
  <!-- Background circle -->
  <circle cx="16" cy="16" r="16" fill="url(#bgGradient)" />
  
  <!-- Stylized "S" shape -->
  <path d="M21.5,11c0-2.2-1.8-4-4-4h-6c-0.6,0-1,0.4-1,1v1c0,0.6,0.4,1,1,1h6c0.6,0,1,0.4,1,1v2c0,0.6-0.4,1-1,1h-6
     c-0.6,0-1,0.4-1,1v1c0,0.6,0.4,1,1,1h6c0.6,0,1,0.4,1,1v2c0,0.6-0.4,1-1,1h-6c-0.6,0-1,0.4-1,1v1c0,0.6,0.4,1,1,1h6
     c2.2,0,4-1.8,4-4v-2c0-0.7-0.2-1.4-0.5-2c0.3-0.6,0.5-1.3,0.5-2V11z" fill="white"/>
</svg> 